<svg width="356" height="11" viewBox="0 0 356 11" fill="none" xmlns="http://www.w3.org/2000/svg">
<path d="M138.035 1.46082H132.2V9.68911H138.035V1.46082Z" stroke="#01DF72" stroke-linejoin="round"/>
<path d="M135.119 4.25241C135.378 4.25241 135.588 4.03865 135.588 3.77495C135.588 3.51125 135.378 3.29749 135.119 3.29749C134.86 3.29749 134.65 3.51125 134.65 3.77495C134.65 4.03865 134.86 4.25241 135.119 4.25241Z" stroke="#01DF72" stroke-linejoin="round"/>
<path d="M135.119 7.67099C135.378 7.67099 135.588 7.45722 135.588 7.19353C135.588 6.92983 135.378 6.71606 135.119 6.71606C134.86 6.71606 134.65 6.92983 134.65 7.19353C134.65 7.45722 134.86 7.67099 135.119 7.67099Z" stroke="#01DF72" stroke-linejoin="round"/>
<path d="M279.269 1.46082H273.433V9.68911H279.269V1.46082Z" stroke="#01DF72" stroke-linejoin="round"/>
<path d="M276.352 4.25241C276.611 4.25241 276.821 4.03865 276.821 3.77495C276.821 3.51125 276.611 3.29749 276.352 3.29749C276.093 3.29749 275.883 3.51125 275.883 3.77495C275.883 4.03865 276.093 4.25241 276.352 4.25241Z" stroke="#01DF72" stroke-linejoin="round"/>
<path d="M276.352 7.67099C276.611 7.67099 276.821 7.45722 276.821 7.19353C276.821 6.92983 276.611 6.71606 276.352 6.71606C276.093 6.71606 275.883 6.92983 275.883 7.19353C275.883 7.45722 276.093 7.67099 276.352 7.67099Z" stroke="#01DF72" stroke-linejoin="round"/>
<path d="M355.49 1.46082H349.654V9.68911H355.49V1.46082Z" stroke="#01DF72" stroke-linejoin="round"/>
<path d="M352.574 4.25241C352.832 4.25241 353.042 4.03865 353.042 3.77495C353.042 3.51125 352.832 3.29749 352.574 3.29749C352.315 3.29749 352.105 3.51125 352.105 3.77495C352.105 4.03865 352.315 4.25241 352.574 4.25241Z" stroke="#01DF72" stroke-linejoin="round"/>
<path d="M352.574 7.67099C352.832 7.67099 353.042 7.45722 353.042 7.19353C353.042 6.92983 352.832 6.71606 352.574 6.71606C352.315 6.71606 352.105 6.92983 352.105 7.19353C352.105 7.45722 352.315 7.67099 352.574 7.67099Z" stroke="#01DF72" stroke-linejoin="round"/>
<path d="M122.682 1.46082V9.68911H118.002V5.92033" stroke="#01DF72" stroke-linejoin="round"/>
<path d="M119.659 3.77487C119.918 3.77487 120.128 3.56111 120.128 3.29741C120.128 3.03371 119.918 2.81995 119.659 2.81995C119.4 2.81995 119.19 3.03371 119.19 3.29741C119.19 3.56111 119.4 3.77487 119.659 3.77487Z" stroke="#01DF72" stroke-linejoin="round"/>
<path d="M263.915 1.46082V9.68911H259.235V5.92033" stroke="#01DF72" stroke-linejoin="round"/>
<path d="M260.892 3.77487C261.151 3.77487 261.361 3.56111 261.361 3.29741C261.361 3.03371 261.151 2.81995 260.892 2.81995C260.633 2.81995 260.423 3.03371 260.423 3.29741C260.423 3.56111 260.633 3.77487 260.892 3.77487Z" stroke="#01DF72" stroke-linejoin="round"/>
<path d="M340.136 1.46082V9.68911H335.457V5.92033" stroke="#01DF72" stroke-linejoin="round"/>
<path d="M337.113 3.77487C337.372 3.77487 337.582 3.56111 337.582 3.29741C337.582 3.03371 337.372 2.81995 337.113 2.81995C336.855 2.81995 336.645 3.03371 336.645 3.29741C336.645 3.56111 336.855 3.77487 337.113 3.77487Z" stroke="#01DF72" stroke-linejoin="round"/>
<path d="M129.164 8.62595C129.423 8.62595 129.633 8.41218 129.633 8.14848C129.633 7.88479 129.423 7.67102 129.164 7.67102C128.905 7.67102 128.696 7.88479 128.696 8.14848C128.696 8.41218 128.905 8.62595 129.164 8.62595Z" stroke="#01DF72" stroke-linejoin="round"/>
<path d="M129.164 5.75791C129.423 5.75791 129.633 5.54414 129.633 5.28044C129.633 5.01675 129.423 4.80298 129.164 4.80298C128.905 4.80298 128.696 5.01675 128.696 5.28044C128.696 5.54414 128.905 5.75791 129.164 5.75791Z" stroke="#01DF72" stroke-linejoin="round"/>
<path d="M129.164 2.88999C129.423 2.88999 129.633 2.67622 129.633 2.41252C129.633 2.14883 129.423 1.93506 129.164 1.93506C128.905 1.93506 128.696 2.14883 128.696 2.41252C128.696 2.67622 128.905 2.88999 129.164 2.88999Z" stroke="#01DF72" stroke-linejoin="round"/>
<path d="M126.226 2.25659V8.14849" stroke="#01DF72" stroke-linejoin="round"/>
<path d="M270.398 8.62595C270.657 8.62595 270.866 8.41218 270.866 8.14848C270.866 7.88479 270.657 7.67102 270.398 7.67102C270.139 7.67102 269.929 7.88479 269.929 8.14848C269.929 8.41218 270.139 8.62595 270.398 8.62595Z" stroke="#01DF72" stroke-linejoin="round"/>
<path d="M270.398 5.75791C270.657 5.75791 270.866 5.54414 270.866 5.28044C270.866 5.01675 270.657 4.80298 270.398 4.80298C270.139 4.80298 269.929 5.01675 269.929 5.28044C269.929 5.54414 270.139 5.75791 270.398 5.75791Z" stroke="#01DF72" stroke-linejoin="round"/>
<path d="M270.398 2.88999C270.657 2.88999 270.866 2.67622 270.866 2.41252C270.866 2.14883 270.657 1.93506 270.398 1.93506C270.139 1.93506 269.929 2.14883 269.929 2.41252C269.929 2.67622 270.139 2.88999 270.398 2.88999Z" stroke="#01DF72" stroke-linejoin="round"/>
<path d="M267.459 2.25659V8.14849" stroke="#01DF72" stroke-linejoin="round"/>
<path d="M346.619 8.62595C346.878 8.62595 347.088 8.41218 347.088 8.14848C347.088 7.88479 346.878 7.67102 346.619 7.67102C346.36 7.67102 346.15 7.88479 346.15 8.14848C346.15 8.41218 346.36 8.62595 346.619 8.62595Z" stroke="#01DF72" stroke-linejoin="round"/>
<path d="M346.619 5.75791C346.878 5.75791 347.088 5.54414 347.088 5.28044C347.088 5.01675 346.878 4.80298 346.619 4.80298C346.36 4.80298 346.15 5.01675 346.15 5.28044C346.15 5.54414 346.36 5.75791 346.619 5.75791Z" stroke="#01DF72" stroke-linejoin="round"/>
<path d="M346.619 2.88999C346.878 2.88999 347.088 2.67622 347.088 2.41252C347.088 2.14883 346.878 1.93506 346.619 1.93506C346.36 1.93506 346.15 2.14883 346.15 2.41252C346.15 2.67622 346.36 2.88999 346.619 2.88999Z" stroke="#01DF72" stroke-linejoin="round"/>
<path d="M343.681 2.25659V8.14849" stroke="#01DF72" stroke-linejoin="round"/>
<path d="M46.0031 1.63269V9.27211L40.4205 5.4524" stroke="#01DF72" stroke-linejoin="round"/>
<path d="M43.1399 3.94357C43.3989 3.94357 43.6088 3.72981 43.6088 3.46611C43.6088 3.20242 43.3989 2.98865 43.1399 2.98865C42.881 2.98865 42.6711 3.20242 42.6711 3.46611C42.6711 3.72981 42.881 3.94357 43.1399 3.94357Z" stroke="#01DF72" stroke-linejoin="round"/>
<path d="M187.236 1.63269V9.27211L181.654 5.4524" stroke="#01DF72" stroke-linejoin="round"/>
<path d="M184.373 3.94357C184.632 3.94357 184.842 3.72981 184.842 3.46611C184.842 3.20242 184.632 2.98865 184.373 2.98865C184.114 2.98865 183.904 3.20242 183.904 3.46611C183.904 3.72981 184.114 3.94357 184.373 3.94357Z" stroke="#01DF72" stroke-linejoin="round"/>
<path d="M77.3547 1.63269H71.5189V9.86098H77.3547V1.63269Z" stroke="#01DF72" stroke-linejoin="round"/>
<path d="M74.4384 4.42111C74.6974 4.42111 74.9073 4.20735 74.9073 3.94365C74.9073 3.67995 74.6974 3.46619 74.4384 3.46619C74.1795 3.46619 73.9695 3.67995 73.9695 3.94365C73.9695 4.20735 74.1795 4.42111 74.4384 4.42111Z" stroke="#01DF72" stroke-linejoin="round"/>
<path d="M74.4384 7.84287C74.6974 7.84287 74.9073 7.6291 74.9073 7.3654C74.9073 7.10171 74.6974 6.88794 74.4384 6.88794C74.1795 6.88794 73.9695 7.10171 73.9695 7.3654C73.9695 7.6291 74.1795 7.84287 74.4384 7.84287Z" stroke="#01DF72" stroke-linejoin="round"/>
<path d="M218.588 1.63269H212.752V9.86098H218.588V1.63269Z" stroke="#01DF72" stroke-linejoin="round"/>
<path d="M215.672 4.42111C215.931 4.42111 216.14 4.20735 216.14 3.94365C216.14 3.67995 215.931 3.46619 215.672 3.46619C215.413 3.46619 215.203 3.67995 215.203 3.94365C215.203 4.20735 215.413 4.42111 215.672 4.42111Z" stroke="#01DF72" stroke-linejoin="round"/>
<path d="M215.672 7.84287C215.931 7.84287 216.14 7.6291 216.14 7.3654C216.14 7.10171 215.931 6.88794 215.672 6.88794C215.413 6.88794 215.203 7.10171 215.203 7.3654C215.203 7.6291 215.413 7.84287 215.672 7.84287Z" stroke="#01DF72" stroke-linejoin="round"/>
<path d="M294.809 1.63269H288.973V9.86098H294.809V1.63269Z" stroke="#01DF72" stroke-linejoin="round"/>
<path d="M291.893 4.42111C292.152 4.42111 292.362 4.20735 292.362 3.94365C292.362 3.67995 292.152 3.46619 291.893 3.46619C291.634 3.46619 291.424 3.67995 291.424 3.94365C291.424 4.20735 291.634 4.42111 291.893 4.42111Z" stroke="#01DF72" stroke-linejoin="round"/>
<path d="M291.893 7.84287C292.152 7.84287 292.362 7.6291 292.362 7.3654C292.362 7.10171 292.152 6.88794 291.893 6.88794C291.634 6.88794 291.424 7.10171 291.424 7.3654C291.424 7.6291 291.634 7.84287 291.893 7.84287Z" stroke="#01DF72" stroke-linejoin="round"/>
<path d="M53.777 8.13574H49.3478" stroke="#01DF72" stroke-linejoin="round"/>
<path d="M53.255 1.92554V5.74525H49.3478" stroke="#01DF72" stroke-linejoin="round"/>
<path d="M195.01 8.13574H190.581" stroke="#01DF72" stroke-linejoin="round"/>
<path d="M194.488 1.92554V5.74525H190.581" stroke="#01DF72" stroke-linejoin="round"/>
<path d="M62.0008 1.63269V9.8578H57.3215V6.0922" stroke="#01DF72" stroke-linejoin="round"/>
<path d="M58.9782 3.94357C59.2372 3.94357 59.4471 3.72981 59.4471 3.46611C59.4471 3.20242 59.2372 2.98865 58.9782 2.98865C58.7193 2.98865 58.5093 3.20242 58.5093 3.46611C58.5093 3.72981 58.7193 3.94357 58.9782 3.94357Z" stroke="#01DF72" stroke-linejoin="round"/>
<path d="M203.234 1.63269V9.8578H198.555V6.0922" stroke="#01DF72" stroke-linejoin="round"/>
<path d="M200.211 3.94357C200.47 3.94357 200.68 3.72981 200.68 3.46611C200.68 3.20242 200.47 2.98865 200.211 2.98865C199.952 2.98865 199.742 3.20242 199.742 3.46611C199.742 3.72981 199.952 3.94357 200.211 3.94357Z" stroke="#01DF72" stroke-linejoin="round"/>
<path d="M83.9595 7.39095V1.95105H79.5553L81.8152 4.25561V9.88331" stroke="#01DF72" stroke-linejoin="round"/>
<path d="M225.193 7.39095V1.95105H220.788L223.048 4.25561V9.88331" stroke="#01DF72" stroke-linejoin="round"/>
<path d="M301.414 7.39095V1.95105H297.01L299.27 4.25561V9.88331" stroke="#01DF72" stroke-linejoin="round"/>
<path d="M68.4838 8.79782C68.7427 8.79782 68.9526 8.58406 68.9526 8.32036C68.9526 8.05666 68.7427 7.8429 68.4838 7.8429C68.2248 7.8429 68.0149 8.05666 68.0149 8.32036C68.0149 8.58406 68.2248 8.79782 68.4838 8.79782Z" stroke="#01DF72" stroke-linejoin="round"/>
<path d="M68.4838 5.92978C68.7427 5.92978 68.9526 5.71601 68.9526 5.45232C68.9526 5.18862 68.7427 4.97485 68.4838 4.97485C68.2248 4.97485 68.0149 5.18862 68.0149 5.45232C68.0149 5.71601 68.2248 5.92978 68.4838 5.92978Z" stroke="#01DF72" stroke-linejoin="round"/>
<path d="M68.4838 3.05869C68.7427 3.05869 68.9526 2.84492 68.9526 2.58122C68.9526 2.31753 68.7427 2.10376 68.4838 2.10376C68.2248 2.10376 68.0149 2.31753 68.0149 2.58122C68.0149 2.84492 68.2248 3.05869 68.4838 3.05869Z" stroke="#01DF72" stroke-linejoin="round"/>
<path d="M65.5455 2.42847V8.32037" stroke="#01DF72" stroke-linejoin="round"/>
<path d="M209.717 8.79782C209.976 8.79782 210.186 8.58406 210.186 8.32036C210.186 8.05666 209.976 7.8429 209.717 7.8429C209.458 7.8429 209.248 8.05666 209.248 8.32036C209.248 8.58406 209.458 8.79782 209.717 8.79782Z" stroke="#01DF72" stroke-linejoin="round"/>
<path d="M209.717 5.92978C209.976 5.92978 210.186 5.71601 210.186 5.45232C210.186 5.18862 209.976 4.97485 209.717 4.97485C209.458 4.97485 209.248 5.18862 209.248 5.45232C209.248 5.71601 209.458 5.92978 209.717 5.92978Z" stroke="#01DF72" stroke-linejoin="round"/>
<path d="M209.717 3.05869C209.976 3.05869 210.186 2.84492 210.186 2.58122C210.186 2.31753 209.976 2.10376 209.717 2.10376C209.458 2.10376 209.248 2.31753 209.248 2.58122C209.248 2.84492 209.458 3.05869 209.717 3.05869Z" stroke="#01DF72" stroke-linejoin="round"/>
<path d="M206.779 2.42847V8.32037" stroke="#01DF72" stroke-linejoin="round"/>
<path d="M285.938 8.79782C286.197 8.79782 286.407 8.58406 286.407 8.32036C286.407 8.05666 286.197 7.8429 285.938 7.8429C285.679 7.8429 285.469 8.05666 285.469 8.32036C285.469 8.58406 285.679 8.79782 285.938 8.79782Z" stroke="#01DF72" stroke-linejoin="round"/>
<path d="M285.938 5.92978C286.197 5.92978 286.407 5.71601 286.407 5.45232C286.407 5.18862 286.197 4.97485 285.938 4.97485C285.679 4.97485 285.469 5.18862 285.469 5.45232C285.469 5.71601 285.679 5.92978 285.938 5.92978Z" stroke="#01DF72" stroke-linejoin="round"/>
<path d="M285.938 3.05869C286.197 3.05869 286.407 2.84492 286.407 2.58122C286.407 2.31753 286.197 2.10376 285.938 2.10376C285.679 2.10376 285.469 2.31753 285.469 2.58122C285.469 2.84492 285.679 3.05869 285.938 3.05869Z" stroke="#01DF72" stroke-linejoin="round"/>
<path d="M283 2.42847V8.32037" stroke="#01DF72" stroke-linejoin="round"/>
<path d="M6.34952 1.46082V9.10023L0.766876 5.28052" stroke="#01DF72" stroke-linejoin="round"/>
<path d="M3.48629 3.77487C3.74524 3.77487 3.95516 3.56111 3.95516 3.29741C3.95516 3.03371 3.74524 2.81995 3.48629 2.81995C3.22734 2.81995 3.01743 3.03371 3.01743 3.29741C3.01743 3.56111 3.22734 3.77487 3.48629 3.77487Z" stroke="#01DF72" stroke-linejoin="round"/>
<path d="M147.583 1.46082V9.10023L142 5.28052" stroke="#01DF72" stroke-linejoin="round"/>
<path d="M144.719 3.77487C144.978 3.77487 145.188 3.56111 145.188 3.29741C145.188 3.03371 144.978 2.81995 144.719 2.81995C144.46 2.81995 144.251 3.03371 144.251 3.29741C144.251 3.56111 144.46 3.77487 144.719 3.77487Z" stroke="#01DF72" stroke-linejoin="round"/>
<path d="M37.7011 1.46082H31.8653V9.68911H37.7011V1.46082Z" stroke="#01DF72" stroke-linejoin="round"/>
<path d="M34.7816 4.25241C35.0406 4.25241 35.2505 4.03865 35.2505 3.77495C35.2505 3.51125 35.0406 3.29749 34.7816 3.29749C34.5227 3.29749 34.3127 3.51125 34.3127 3.77495C34.3127 4.03865 34.5227 4.25241 34.7816 4.25241Z" stroke="#01DF72" stroke-linejoin="round"/>
<path d="M34.7816 7.67099C35.0406 7.67099 35.2505 7.45722 35.2505 7.19353C35.2505 6.92983 35.0406 6.71606 34.7816 6.71606C34.5227 6.71606 34.3127 6.92983 34.3127 7.19353C34.3127 7.45722 34.5227 7.67099 34.7816 7.67099Z" stroke="#01DF72" stroke-linejoin="round"/>
<path d="M178.934 1.46082H173.098V9.68911H178.934V1.46082Z" stroke="#01DF72" stroke-linejoin="round"/>
<path d="M176.015 4.25241C176.274 4.25241 176.484 4.03865 176.484 3.77495C176.484 3.51125 176.274 3.29749 176.015 3.29749C175.756 3.29749 175.546 3.51125 175.546 3.77495C175.546 4.03865 175.756 4.25241 176.015 4.25241Z" stroke="#01DF72" stroke-linejoin="round"/>
<path d="M176.015 7.67099C176.274 7.67099 176.484 7.45722 176.484 7.19353C176.484 6.92983 176.274 6.71606 176.015 6.71606C175.756 6.71606 175.546 6.92983 175.546 7.19353C175.546 7.45722 175.756 7.67099 176.015 7.67099Z" stroke="#01DF72" stroke-linejoin="round"/>
<path d="M14.1234 7.96704H9.69412" stroke="#01DF72" stroke-linejoin="round"/>
<path d="M13.6013 1.75366V5.57337H9.69412" stroke="#01DF72" stroke-linejoin="round"/>
<path d="M155.356 7.96704H150.927" stroke="#01DF72" stroke-linejoin="round"/>
<path d="M154.834 1.75366V5.57337H150.927" stroke="#01DF72" stroke-linejoin="round"/>
<path d="M22.3472 1.46082V9.68911H17.6648V5.92033" stroke="#01DF72" stroke-linejoin="round"/>
<path d="M19.3246 3.77487C19.5836 3.77487 19.7935 3.56111 19.7935 3.29741C19.7935 3.03371 19.5836 2.81995 19.3246 2.81995C19.0657 2.81995 18.8557 3.03371 18.8557 3.29741C18.8557 3.56111 19.0657 3.77487 19.3246 3.77487Z" stroke="#01DF72" stroke-linejoin="round"/>
<path d="M163.58 1.46082V9.68911H158.898V5.92033" stroke="#01DF72" stroke-linejoin="round"/>
<path d="M160.558 3.77487C160.817 3.77487 161.027 3.56111 161.027 3.29741C161.027 3.03371 160.817 2.81995 160.558 2.81995C160.299 2.81995 160.089 3.03371 160.089 3.29741C160.089 3.56111 160.299 3.77487 160.558 3.77487Z" stroke="#01DF72" stroke-linejoin="round"/>
<path d="M28.8301 8.62595C29.0891 8.62595 29.299 8.41218 29.299 8.14848C29.299 7.88479 29.0891 7.67102 28.8301 7.67102C28.5712 7.67102 28.3613 7.88479 28.3613 8.14848C28.3613 8.41218 28.5712 8.62595 28.8301 8.62595Z" stroke="#01DF72" stroke-linejoin="round"/>
<path d="M28.8301 5.75791C29.0891 5.75791 29.299 5.54414 29.299 5.28044C29.299 5.01675 29.0891 4.80298 28.8301 4.80298C28.5712 4.80298 28.3613 5.01675 28.3613 5.28044C28.3613 5.54414 28.5712 5.75791 28.8301 5.75791Z" stroke="#01DF72" stroke-linejoin="round"/>
<path d="M28.8301 2.88999C29.0891 2.88999 29.299 2.67622 29.299 2.41252C29.299 2.14883 29.0891 1.93506 28.8301 1.93506C28.5712 1.93506 28.3613 2.14883 28.3613 2.41252C28.3613 2.67622 28.5712 2.88999 28.8301 2.88999Z" stroke="#01DF72" stroke-linejoin="round"/>
<path d="M25.8888 2.25659V8.14849" stroke="#01DF72" stroke-linejoin="round"/>
<path d="M170.063 8.62595C170.322 8.62595 170.532 8.41218 170.532 8.14848C170.532 7.88479 170.322 7.67102 170.063 7.67102C169.804 7.67102 169.594 7.88479 169.594 8.14848C169.594 8.41218 169.804 8.62595 170.063 8.62595Z" stroke="#01DF72" stroke-linejoin="round"/>
<path d="M170.063 5.75791C170.322 5.75791 170.532 5.54414 170.532 5.28044C170.532 5.01675 170.322 4.80298 170.063 4.80298C169.804 4.80298 169.594 5.01675 169.594 5.28044C169.594 5.54414 169.804 5.75791 170.063 5.75791Z" stroke="#01DF72" stroke-linejoin="round"/>
<path d="M170.063 2.88999C170.322 2.88999 170.532 2.67622 170.532 2.41252C170.532 2.14883 170.322 1.93506 170.063 1.93506C169.804 1.93506 169.594 2.14883 169.594 2.41252C169.594 2.67622 169.804 2.88999 170.063 2.88999Z" stroke="#01DF72" stroke-linejoin="round"/>
<path d="M167.122 2.25659V8.14849" stroke="#01DF72" stroke-linejoin="round"/>
<path d="M114.186 7.39095V1.95105H109.778L112.042 4.25561V9.88331" stroke="#01DF72" stroke-linejoin="round"/>
<path d="M255.419 7.39095V1.95105H251.012L253.275 4.25561V9.88331" stroke="#01DF72" stroke-linejoin="round"/>
<path d="M331.64 7.39095V1.95105H327.233L329.496 4.25561V9.88331" stroke="#01DF72" stroke-linejoin="round"/>
<path d="M105.324 8.79782C105.583 8.79782 105.793 8.58406 105.793 8.32036C105.793 8.05666 105.583 7.8429 105.324 7.8429C105.065 7.8429 104.855 8.05666 104.855 8.32036C104.855 8.58406 105.065 8.79782 105.324 8.79782Z" stroke="#01DF72" stroke-linejoin="round"/>
<path d="M105.324 5.92978C105.583 5.92978 105.793 5.71601 105.793 5.45232C105.793 5.18862 105.583 4.97485 105.324 4.97485C105.065 4.97485 104.855 5.18862 104.855 5.45232C104.855 5.71601 105.065 5.92978 105.324 5.92978Z" stroke="#01DF72" stroke-linejoin="round"/>
<path d="M105.324 3.05869C105.583 3.05869 105.793 2.84492 105.793 2.58122C105.793 2.31753 105.583 2.10376 105.324 2.10376C105.065 2.10376 104.855 2.31753 104.855 2.58122C104.855 2.84492 105.065 3.05869 105.324 3.05869Z" stroke="#01DF72" stroke-linejoin="round"/>
<path d="M102.386 2.42847V8.32037" stroke="#01DF72" stroke-linejoin="round"/>
<path d="M246.557 8.79782C246.816 8.79782 247.026 8.58406 247.026 8.32036C247.026 8.05666 246.816 7.8429 246.557 7.8429C246.298 7.8429 246.089 8.05666 246.089 8.32036C246.089 8.58406 246.298 8.79782 246.557 8.79782Z" stroke="#01DF72" stroke-linejoin="round"/>
<path d="M246.557 5.92978C246.816 5.92978 247.026 5.71601 247.026 5.45232C247.026 5.18862 246.816 4.97485 246.557 4.97485C246.298 4.97485 246.089 5.18862 246.089 5.45232C246.089 5.71601 246.298 5.92978 246.557 5.92978Z" stroke="#01DF72" stroke-linejoin="round"/>
<path d="M246.557 3.05869C246.816 3.05869 247.026 2.84492 247.026 2.58122C247.026 2.31753 246.816 2.10376 246.557 2.10376C246.298 2.10376 246.089 2.31753 246.089 2.58122C246.089 2.84492 246.298 3.05869 246.557 3.05869Z" stroke="#01DF72" stroke-linejoin="round"/>
<path d="M243.619 2.42847V8.32037" stroke="#01DF72" stroke-linejoin="round"/>
<path d="M322.779 8.79782C323.038 8.79782 323.248 8.58406 323.248 8.32036C323.248 8.05666 323.038 7.8429 322.779 7.8429C322.52 7.8429 322.31 8.05666 322.31 8.32036C322.31 8.58406 322.52 8.79782 322.779 8.79782Z" stroke="#01DF72" stroke-linejoin="round"/>
<path d="M322.779 5.92978C323.038 5.92978 323.248 5.71601 323.248 5.45232C323.248 5.18862 323.038 4.97485 322.779 4.97485C322.52 4.97485 322.31 5.18862 322.31 5.45232C322.31 5.71601 322.52 5.92978 322.779 5.92978Z" stroke="#01DF72" stroke-linejoin="round"/>
<path d="M322.779 3.05869C323.038 3.05869 323.248 2.84492 323.248 2.58122C323.248 2.31753 323.038 2.10376 322.779 2.10376C322.52 2.10376 322.31 2.31753 322.31 2.58122C322.31 2.84492 322.52 3.05869 322.779 3.05869Z" stroke="#01DF72" stroke-linejoin="round"/>
<path d="M319.84 2.42847V8.32037" stroke="#01DF72" stroke-linejoin="round"/>
<path d="M97.7629 7.39095V1.95105H93.3586L95.6186 4.25561V9.88331" stroke="#01DF72" stroke-linejoin="round"/>
<path d="M238.996 7.39095V1.95105H234.592L236.852 4.25561V9.88331" stroke="#01DF72" stroke-linejoin="round"/>
<path d="M315.217 7.39095V1.95105H310.813L313.073 4.25561V9.88331" stroke="#01DF72" stroke-linejoin="round"/>
</svg>
